<svg width="30" height="34" viewBox="0 0 30 34" fill="none" xmlns="http://www.w3.org/2000/svg">
<path fill-rule="evenodd" clip-rule="evenodd" d="M1.84187 3.52L5.36187 0L12.4163 7.0544L14.9341 4.53656V4.1318C15.0675 4.1318 15.2006 4.13358 15.3335 4.13714L19.4707 0L22.9907 3.52L21.0632 5.44747C22.6978 6.18313 24.2022 7.21393 25.4941 8.5059C28.2948 11.3066 29.8682 15.1051 29.8682 19.0659C29.8682 23.0267 28.2948 26.8252 25.4941 29.6259C22.7022 32.4179 18.9185 33.9902 14.9711 34H14.9342V29.022H14.9342V29.022C16.2416 29.0219 17.5362 28.7644 18.7442 28.2641C19.9521 27.7638 21.0496 27.0304 21.9741 26.1059C22.8987 25.1814 23.632 24.0838 24.1324 22.8759C24.6327 21.668 24.8902 20.3733 24.8902 19.0659C24.8902 17.7584 24.6327 16.4638 24.1324 15.2559C23.632 14.0479 22.8987 12.9504 21.9742 12.0259C21.0496 11.1014 19.9521 10.368 18.7442 9.86766C18.2271 9.65347 17.6941 9.48377 17.151 9.35973L14.9341 11.5765V19.0659L14.9341 29.022L14.9341 34C14.9341 34 14.9341 34 14.9341 34L14.9341 19.0659L14.9341 11.5766L14.9341 11.5766V26.5329H9.95606V11.6342L1.84187 3.52ZM14.9341 29.022L14.9341 26.554L14.9342 26.5443L14.9342 29.022C14.9342 29.022 14.9341 29.022 14.9341 29.022ZM14.9341 34C14.9465 34 14.9588 34 14.9711 34H14.9865L14.9341 34.0001V34ZM15.3335 4.13718C15.2006 4.13363 15.0675 4.13185 14.9342 4.13185V4.53653L15.3335 4.13718ZM14.3657 29.3905C14.741 28.4845 14.9341 27.5135 14.9341 26.533H7.46706H0C0 27.5135 0.193141 28.4845 0.568396 29.3905C0.94365 30.2964 1.49367 31.1196 2.18705 31.813C2.88043 32.5063 3.70359 33.0564 4.60954 33.4316C5.51548 33.8069 6.48647 34 7.46706 34C8.44764 34 9.41863 33.8069 10.3246 33.4316C11.2305 33.0564 12.0537 32.5063 12.7471 31.813C13.4404 31.1196 13.9905 30.2964 14.3657 29.3905ZM9.22708 28.293C9.69386 27.8262 9.9561 27.1931 9.9561 26.533H7.46708L4.97806 26.533C4.97806 27.1931 5.24029 27.8262 5.70708 28.293C6.17386 28.7598 6.80695 29.022 7.46708 29.022C8.12721 29.022 8.7603 28.7598 9.22708 28.293ZM14.9342 26.5329H14.9341V26.533H14.9342L14.9342 19.0659V11.5766L14.9342 11.5766V26.5329Z" fill="#FF5D5B"/>
</svg>
